# xmcd
#
# Track frame offsets:
#	150
#	17512
#	31484
#	45778
#	62193
#	82829
#	96464
#	105336
#	126378
#	144749
#	156760
#	181633
#	209439
#	222488
#	242273
# Disc length: 3502 seconds
# Revision: 1
# Processed by: cddbd v1.5.2PL0 Copyright (c) Steve Scherf et al.
#
# Submitted via: libkcddb 0.31
#
DISCID=c20dac0f
DTITLE=Louisiana Red - Live At Painted Sky
DYEAR=2006
DGENRE=Blues
TTITLE0=Red's Dream
TTITLE1=You Used To Call me Daddy
TTITLE2=I Wonder Who
TTITLE3=Ride On Red, Ride On
TTITLE4=When My Mama Was Living
TTITLE5=Wrestling Jacob
TTITLE6=Bernice
TTITLE7=All The Women I've Known
TTITLE8=Red's New Dream
TTITLE9=Bad Bad Whiskey
TTITLE10=Sleep On Muddy Waters
TTITLE11=Driftin'
TTITLE12=King Bee
TTITLE13=Freight Train Blues
TTITLE14=Detroit Blues
EXTD=
EXTT0=
EXTT1=
EXTT2=
EXTT3=
EXTT4=
EXTT5=
EXTT6=
EXTT7=
EXTT8=
EXTT9=
EXTT10=
EXTT11=
EXTT12=
EXTT13=
EXTT14=
PLAYORDER=
